<svg xmlns="http://www.w3.org/2000/svg" xmlns:xlink="http://www.w3.org/1999/xlink" id="Capa_1" x="0" y="0" enable-background="new 0 0 993.5 149.8" version="1.1" viewBox="0 0 993.5 149.8" xml:space="preserve"><style type="text/css">.st0{fill:#444471}.st1{fill:none}.st2{fill:#fff}.st3{font-family:&apos;Apercu-Bold&apos;}.st4{font-size:27px}.st5{font-family:&apos;Apercu&apos;}.st6{fill:#27b1aa}.st7{opacity:.3}.st7,.st8{fill:#34334a}.st9{fill:#2b6a7c}.st10{fill:#338ba1}.st11{fill:#73c9c4}.st12{opacity:.5}.st13{opacity:.3}.st14{fill:#57524d}.st15{fill:#f1a31e}.st16{fill:#f9c231}.st17{opacity:.6}.st18{clip-path:url(#SVGID_2_);fill:#f1a31e}.st19{fill:#f9cc62}.st20{fill:#abdcd9}.st21{clip-path:url(#SVGID_4_);fill:#57524d}.st22{clip-path:url(#SVGID_6_);fill:#f1a31e}.st23{clip-path:url(#SVGID_8_);fill:#57524d}.st24{fill:#585c55}.st25{clip-path:url(#SVGID_10_);fill:#fff}.st26{fill:#848484}.st27,.st28{clip-path:url(#SVGID_12_);fill:#fff}.st28{clip-path:url(#SVGID_14_)}.st29{fill:#d8d8d7}.st30,.st31{clip-path:url(#SVGID_16_);fill:#fff}.st31{clip-path:url(#SVGID_18_)}.st32{fill:#c2c2c2}.st33{clip-path:url(#SVGID_20_);fill:#fff}.st34{clip-path:url(#SVGID_22_);fill:#57524d}.st35,.st36{clip-path:url(#SVGID_24_);fill:#fff}.st36{clip-path:url(#SVGID_26_)}.st37,.st38{clip-path:url(#SVGID_28_);fill:#fff}.st38{clip-path:url(#SVGID_30_)}.st39,.st40{clip-path:url(#SVGID_32_);fill:#fff}.st40{clip-path:url(#SVGID_34_)}.st41{clip-path:url(#SVGID_36_);fill:#57524d}.st42,.st43{clip-path:url(#SVGID_38_);fill:#fff}.st43{clip-path:url(#SVGID_40_)}.st44,.st45{clip-path:url(#SVGID_42_);fill:#fff}.st45{clip-path:url(#SVGID_44_)}.st46,.st47{clip-path:url(#SVGID_46_);fill:#fff}.st47{clip-path:url(#SVGID_48_)}.st48{clip-path:url(#SVGID_50_);fill:#57524d}.st49,.st50{clip-path:url(#SVGID_52_);fill:#fff}.st50{clip-path:url(#SVGID_54_)}.st51,.st52{clip-path:url(#SVGID_56_);fill:#fff}.st52{clip-path:url(#SVGID_58_)}.st53,.st54{clip-path:url(#SVGID_60_);fill:#fff}.st54{clip-path:url(#SVGID_62_)}.st55{fill:none;stroke:#f8c130;stroke-miterlimit:10}.st56{fill:#f8d194}.st57{fill:#f6b44e}.st58{opacity:.1}.st59{fill:#f9c231}.st59,.st60,.st61{clip-path:url(#SVGID_64_)}.st60{fill:none;stroke:#f8c130;stroke-miterlimit:10}.st61{fill:#fbe6ab}.st62{clip-path:url(#SVGID_66_);fill:#faaf3f}.st63{opacity:.4}.st64{clip-path:url(#SVGID_68_);fill:#faaf3f}.st65{fill:#e4e4e4}.st66{fill:#c3c4ca}.st67{fill:#fdfdfe}.st68{fill:#ef4a51}.st69{fill:none;stroke:#ef4a51;stroke-miterlimit:10}.st70{fill:#ececee}</style><rect width="1012.5" height="183.1" x="-9.5" y="-16.6" class="st0"/><g><rect width="648" height="57.2" x="262.6" y="46.3" class="st1"/><text transform="matrix(1 0 0 1 262.5947 65.42)"><tspan x="0" y="0" class="st2 st3 st4">¡Conoce más herramientas de tecnología cívica </tspan><tspan x="0" y="27.8" class="st2 st3 st4">para estas elecciones en</tspan><tspan x="287.8" y="27.8" class="st2 st5 st4"> </tspan><tspan x="292.8" y="27.8" class="st6 st3 st4">www.mochilaelectoral.gt!</tspan></text></g><g><ellipse cx="144.1" cy="110.7" class="st7" rx="61.2" ry="22.5"/><g><g><path d="M144.9,28l-1.2-0.6v-1.9c0,0,1.2-0.2,1.2,0.7V28z" class="st0"/><path d="M146.3,27.5c0,0,0.2-1.7,0-2.7c-0.3-1.2-2.4-2.1-3.2-1.7c-0.8,0.3-6.2,3.4-9.3,5c-3.1,1.6-2.8,3.9-2.8,3.9 v2.7c1.1,1,2.8-0.3,2.8-0.3v-1.2c0-1.9,0.2-2.1,0.7-2.5c0.7-0.5,7.6-4.5,8.8-5.1c1.2-0.6,1.5,0.6,1.5,0.6V28 C144.9,28,145.6,27.9,146.3,27.5" class="st8"/><path d="M145.6,34c0,0-8.3,3.2-7.6,18.4c1.1,25.9,12,36.5,12,36.5l0.3,7.5c-4.3,0.4-6.2-1.3-11.9-12.2 c-5.7-10.9-7.9-39.5-2.7-47.3C138.5,32.8,142.2,32.9,145.6,34" class="st9"/><path d="M119.9,49c0,0-5.6,4-7,19.1c-3.3,35.5,11.4,35.7,11.4,35.7l0.3,7.5c-4.3,0.4-8.1,2.7-13.9-8.2 c-5.7-10.9-6.7-40.4-0.7-51.3C112.3,47.5,116.4,47.9,119.9,49" class="st9"/><path d="M153,32.6c0,0-7.6-4.8-15.1,1.8c0,0,3.2-2.1,10.2,0.7l0,0.1l-20.8,12v-0.2c0,0-7.6-4.3-15.1,2.3 c0,0,5.2-3.1,15.5,3.4l29.5-16.8C156.5,34.8,153,32.6,153,32.6" class="st10"/><path d="M180.5,69c-0.9-0.5-2.1-0.3-3.3,0.4l-24.3,14c-2.5,1.4-4.4,4.6-4.4,7v17c0,0.6,0.5,1.6,0.7,2l-5.3-3.5h0 c-0.5-0.4-0.7-1.1-0.7-2v-17c0-2.5,2-5.6,4.4-7l24.2-14c1.4-0.8,2.6-0.9,3.4-0.3L180.5,69z" class="st8"/><path d="M148.5,107.4c0,2.5,2,3.3,4.4,1.9l24.2-14c2.5-1.4,4.4-4.6,4.4-7v-17c0-2.5-2-3.3-4.4-1.9l-24.2,14 c-2.4,1.4-4.4,4.6-4.4,7V107.4z" class="st0"/><path d="M173.8,35.9L163.5,28c-0.7-0.5-3.1-1.2-5.4,0.2l-34.8,20.1c-3.5,2-6.4,6.5-6.4,10v50.5 c0,1.8,0.8,2.8,1.9,3.4c3,1.9,10.4,7,10.4,7l0,0c-0.9-0.6-1.4-1.7-1.4-3.2V71.6c0-3.5,2.8-14.1,6.4-16.1L169,35.5 c1.9-1.1,3.3-0.3,4.5,0.3L173.8,35.9z" class="st6"/><path d="M127.9,116c0,3.5,2.8,4.7,6.4,2.7L169,98.6c3.5-2,6.4-6.5,6.4-10V38.1c0-2.4-2.8-4.7-6.4-2.7l-34.8,20.1 c-3.5,2-6.4,6.5-6.4,10V116z" class="st11"/><path d="M177,37.4c-1.1-0.4,1.2,2.1-0.5,3.1l-34.8,20.1c-3.5,2-6.4,6.5-6.4,10v12.5c0,0.9-3.9-0.7-3.6-0.1l-3-2h0.1 c-0.7-0.6-1.1-1.6-1.1-2.9V65.6c0-3.5,2.8-8,6.3-10l34.6-20.1c2-1.2,3.8-1.3,4.9-0.5L177,37.4z" class="st6"/><g class="st12"><g><g class="st13"><g><path d="M176.8,37.4l-3.4-2.5c-1.2-0.8-2.9-0.7-4.9,0.5l-34.6,20.1c-3.5,2-6.3,6.5-6.3,10v0.3l-10.7-6.6v4.1 l10.7,6.7v8c0,1.3,0.4,2.3,1.1,2.9h-0.1l3,2c-0.3-0.6,3.6,1,3.6,0.1V70.6c0-3.5,2.8-8,6.4-10l34.8-20.1 C178,39.5,175.7,37,176.8,37.4" class="st14"/></g></g></g></g><path d="M177.2,79.2c-1.1-0.4,1.1,2.3-0.6,3.3l-34.8,20.1c-3.5,2-6.4,6.5-6.4,10v13.9c0,0.9-3.9-0.7-3.6-0.1l-3-2 h0.1c-0.7-0.6-1.1-1.6-1.1-2.9v-13.9c0-3.5,2.8-8,6.3-10l34.6-20.1c2-1.2,3.8-1.3,4.9-0.5L177.2,79.2z" class="st15"/><path d="M130.7,123.5c0,3.5,2.8,4.7,6.3,2.7l34.7-20.1c3.5-2,6.3-6.5,6.3-10V82.2c0-3.5-2.8-4.7-6.3-2.7l-34.7,20.1 c-3.5,2-6.3,6.5-6.3,10V123.5z" class="st16"/><path d="M127.9,101.8H127c-3.2,0-5.8,2.7-5.8,6.1v19.6l-11.8-6.8v-18.6c0-3.3,2.6-6.1,5.8-6.1h2.1L127.9,101.8z" class="st8"/><path d="M121.2,127.4V108c0-3.4,2.5-6.2,5.7-6.2h0.8l0.2,0v19.5c0,3.4-2.5,6.2-5.7,6.2H121.2z" class="st0"/><g class="st17"><g><defs><rect id="SVGID_1_" width="13.8" height="19.7" x="137.9" y="101.9"/></defs><clipPath id="SVGID_2_"><use overflow="visible" xlink:href="#SVGID_1_"/></clipPath><path d="M140.4,121.6l-1.7-1.1c-0.5-0.4-0.8-1-0.8-1.9v-6.5c0-2.5,2-5.7,4.5-7.1l4.7-2.4c1.4-0.8,2.7-0.9,3.5-0.3 l1.2,0.6" class="st18"/></g></g><path d="M139,119.2c0,2.5,2,3.3,4.5,1.9l4.7-2.4c2.5-1.4,4.5-4.6,4.5-7.1v-6.5c0-2.5-2-3.3-4.5-1.9l-4.7,2.4 c-2.5,1.4-4.5,4.6-4.5,7.1V119.2z" class="st19"/><path d="M163.7,27.8c-0.9-0.4-3.3-1-5.6,0.3l-34.8,20.1c-3.5,2-6.4,6.5-6.4,10l0,2.1l13.6,8.5 c-0.4-5,3.3-8.9,5-10.2L173,36.9c2.1-0.7,3.2-0.1,3.7,0.3L163.7,27.8z" class="st11"/><path d="M130.6,80.2c0,3.5,2.8,4.7,6.3,2.7l34.7-20.1c3.5-2,6.3-6.5,6.3-10V40.3c0-3.5-2.8-4.7-6.3-2.7l-34.7,20.1 c-3.5,2-6.3,6.5-6.3,10V80.2z" class="st20"/><g class="st13"><g><defs><rect id="SVGID_3_" width="12" height="11.5" x="109.4" y="101.4"/></defs><clipPath id="SVGID_4_"><use overflow="visible" xlink:href="#SVGID_3_"/></clipPath><path d="M121.4,106.1l-10.9-4.8l-1.2,4.6c3.1,2.6,10.3,6.1,11.8,6.9c0,0,0-4,0-5.5 C121.2,107,121.4,106.1,121.4,106.1" class="st21"/></g></g><path d="M121.7,105.2l-12.1-5l-1.2,4.6c3.1,2.6,9.9,5.7,11.6,6.3L121.7,105.2z" class="st8"/><g class="st17"><g><defs><rect id="SVGID_5_" width="13.8" height="19.7" x="159.3" y="89.1"/></defs><clipPath id="SVGID_6_"><use overflow="visible" xlink:href="#SVGID_5_"/></clipPath><path d="M161.8,108.8l-1.7-1.1c-0.5-0.4-0.8-1-0.8-1.9v-6.5c0-2.5,2-5.7,4.5-7.1l4.7-2.4c1.4-0.8,2.7-0.9,3.5-0.3 l1.2,0.6" class="st22"/></g></g><path d="M160.4,106.4c0,2.5,2,3.3,4.5,1.9l4.7-2.4c2.5-1.4,4.5-4.6,4.5-7.1v-6.5c0-2.5-2-3.3-4.5-1.9l-4.7,2.4 c-2.5,1.4-4.5,4.6-4.5,7.1V106.4z" class="st19"/><g class="st13"><g><defs><rect id="SVGID_7_" width="11.4" height="26.1" x="137.4" y="92.9"/></defs><clipPath id="SVGID_8_"><use overflow="visible" xlink:href="#SVGID_7_"/></clipPath><polygon points="148 95.7 146.9 96.3 142.4 92.9 137.4 95.8 142.9 99.7 142.9 117.6 143.7 118 146.2 119 148.8 115.1 148.8 96.1" class="st23"/></g></g><polygon points="143.2 92.2 138.1 95.1 143.7 99 147.9 95.8" class="st0"/><polygon points="144.4 117.7 143.7 117.3 143.7 98.3 144.5 98.8" class="st0"/><polygon points="144.5 98.8 143.7 98.3 148.8 95.4 149.5 95.8" class="st24"/><polygon points="149.6 95.8 149.5 114.8 147 118.7 144.4 117.7 144.5 98.8" class="st8"/><polygon points="143.8 91.8 138.7 94.8 144.5 98.8 149.5 95.8" class="st8"/></g><g><defs><path id="SVGID_9_" d="M148.9,110.3l0.2,0.1c0.3-0.2,0.5-0.6,0.5-0.9l-0.2-0.1C149.4,109.7,149.2,110.1,148.9,110.3"/></defs><clipPath id="SVGID_10_"><use overflow="visible" xlink:href="#SVGID_9_"/></clipPath><path d="M149.1,110.4l-0.2-0.1c0.3-0.2,0.5-0.6,0.5-0.9l0.2,0.1C149.6,109.9,149.4,110.3,149.1,110.4" class="st25"/></g><g><polygon points="149.6 109.5 149.4 109.4 149.4 107.3 149.6 107.4" class="st26"/></g><g><defs><path id="SVGID_11_" d="M149.4,107.3l0.2,0.1c0-0.2-0.1-0.3-0.2-0.3l-0.2-0.1C149.3,107,149.4,107.1,149.4,107.3"/></defs><clipPath id="SVGID_12_"><use overflow="visible" xlink:href="#SVGID_11_"/></clipPath><path d="M149.6,107.4l-0.2-0.1c0-0.2-0.1-0.3-0.2-0.3l0.2,0.1C149.6,107.2,149.6,107.3,149.6,107.4" class="st27"/></g><g><defs><path id="SVGID_13_" d="M148.9,106.1l0.2,0.1c0.4-0.2,0.7-0.2,1-0.1l-0.2-0.1c-0.1-0.1-0.2-0.1-0.4-0.1 C149.3,105.9,149.1,105.9,148.9,106.1"/></defs><clipPath id="SVGID_14_"><use overflow="visible" xlink:href="#SVGID_13_"/></clipPath><path d="M149.1,106.2l-0.2-0.1c0.4-0.2,0.7-0.2,1-0.1l0.2,0.1C149.8,106,149.5,106,149.1,106.2" class="st28"/></g><g><polygon points="144.9 112.9 144.7 112.7 148.9 110.3 149.1 110.4" class="st29"/></g><g><defs><path id="SVGID_15_" d="M144.3,112.7l0.2,0.1c0.1,0.1,0.2,0,0.4,0l-0.2-0.1C144.5,112.8,144.4,112.8,144.3,112.7"/></defs><clipPath id="SVGID_16_"><use overflow="visible" xlink:href="#SVGID_15_"/></clipPath><path d="M144.6,112.9l-0.2-0.1c0.1,0.1,0.2,0.1,0.4,0l0.2,0.1C144.8,112.9,144.7,112.9,144.6,112.9" class="st30"/></g><g><defs><path id="SVGID_17_" d="M143.7,113.7l0.2,0.1c-0.2-0.1-0.4-0.4-0.4-0.9l-0.2-0.1C143.3,113.3,143.5,113.6,143.7,113.7"/></defs><clipPath id="SVGID_18_"><use overflow="visible" xlink:href="#SVGID_17_"/></clipPath><path d="M144,113.9l-0.2-0.1c-0.2-0.1-0.4-0.4-0.4-0.9l0.2,0.1C143.6,113.5,143.7,113.8,144,113.9" class="st31"/></g><g><polygon points="143.6 113 143.3 112.9 143.3 110.8 143.6 110.9" class="st26"/><polygon points="144.9 108.6 144.7 108.5 148.9 106.1 149.1 106.2" class="st29"/><path d="M149.1,106.2c0.7-0.4,1.3-0.1,1.3,0.8l0,2.1c0,0.8-0.6,1.9-1.3,2.3l-4.2,2.4c-0.7,0.4-1.3,0.1-1.3-0.8 l0-2.1c0-0.8,0.6-1.9,1.3-2.3L149.1,106.2z M149.6,109.5l0-2.1c0-0.3-0.2-0.5-0.5-0.3l-4.2,2.4c-0.3,0.2-0.5,0.6-0.5,0.9l0,2.1 c0,0.3,0.2,0.5,0.5,0.3l4.2-2.4C149.4,110.3,149.6,109.9,149.6,109.5" class="st32"/></g><g><defs><path id="SVGID_19_" d="M143.3,110.8l0.2,0.1c0-0.9,0.6-1.9,1.3-2.3l-0.2-0.1C143.9,108.9,143.3,109.9,143.3,110.8"/></defs><clipPath id="SVGID_20_"><use overflow="visible" xlink:href="#SVGID_19_"/></clipPath><path d="M143.6,110.9l-0.2-0.1c0-0.8,0.6-1.9,1.3-2.3l0.2,0.1C144.2,109.1,143.6,110.1,143.6,110.9" class="st33"/></g><g><g class="st13"><g><defs><rect id="SVGID_21_" width="11.4" height="26.1" x="159.1" y="80.3"/></defs><clipPath id="SVGID_22_"><use overflow="visible" xlink:href="#SVGID_21_"/></clipPath><polygon points="169.7 83.1 168.6 83.8 164.1 80.3 159.1 83.3 164.6 87.2 164.6 105.1 165.4 105.5 167.9 106.5 170.5 102.6 170.5 83.6" class="st34"/></g></g><polygon points="164.9 79.7 159.8 82.6 165.4 86.5 169.6 83.3" class="st0"/><polygon points="166.2 105.2 165.4 104.8 165.4 85.8 166.2 86.2" class="st0"/><polygon points="166.2 86.2 165.4 85.8 170.5 82.8 171.2 83.3" class="st24"/><polygon points="171.2 83.3 171.2 102.3 168.7 106.2 166.2 105.2 166.2 86.2" class="st8"/><polygon points="165.5 79.3 160.4 82.2 166.2 86.2 171.2 83.3" class="st8"/></g><g><defs><path id="SVGID_23_" d="M170.6,97.7l0.2,0.1c0.3-0.2,0.5-0.6,0.5-0.9l-0.2-0.1C171.1,97.2,170.9,97.6,170.6,97.7"/></defs><clipPath id="SVGID_24_"><use overflow="visible" xlink:href="#SVGID_23_"/></clipPath><path d="M170.8,97.9l-0.2-0.1c0.3-0.2,0.5-0.6,0.5-0.9l0.2,0.1C171.3,97.3,171.1,97.7,170.8,97.9" class="st35"/></g><g><polygon points="171.3 97 171.1 96.9 171.1 94.8 171.3 94.9" class="st26"/></g><g><defs><path id="SVGID_25_" d="M171.1,94.8l0.2,0.1c0-0.2-0.1-0.3-0.2-0.3l-0.2-0.1C171,94.5,171.1,94.6,171.1,94.8"/></defs><clipPath id="SVGID_26_"><use overflow="visible" xlink:href="#SVGID_25_"/></clipPath><path d="M171.3,94.9l-0.2-0.1c0-0.2-0.1-0.3-0.2-0.3l0.2,0.1C171.3,94.6,171.3,94.7,171.3,94.9" class="st36"/></g><g><defs><path id="SVGID_27_" d="M170.6,93.5l0.2,0.1c0.4-0.2,0.7-0.2,1-0.1l-0.2-0.1c-0.1-0.1-0.2-0.1-0.4-0.1 C171,93.3,170.8,93.4,170.6,93.5"/></defs><clipPath id="SVGID_28_"><use overflow="visible" xlink:href="#SVGID_27_"/></clipPath><path d="M170.8,93.7l-0.2-0.1c0.4-0.2,0.7-0.2,1-0.1l0.2,0.1C171.5,93.4,171.2,93.5,170.8,93.7" class="st37"/></g><g><polygon points="166.6 100.3 166.4 100.2 170.6 97.7 170.8 97.9" class="st29"/></g><g><defs><path id="SVGID_29_" d="M166,100.2l0.2,0.1c0.1,0.1,0.2,0,0.4,0l-0.2-0.1C166.2,100.3,166.1,100.3,166,100.2"/></defs><clipPath id="SVGID_30_"><use overflow="visible" xlink:href="#SVGID_29_"/></clipPath><path d="M166.3,100.4l-0.2-0.1c0.1,0.1,0.2,0,0.4,0l0.2,0.1C166.5,100.4,166.4,100.4,166.3,100.4" class="st38"/></g><g><defs><path id="SVGID_31_" d="M165.4,101.2l0.2,0.1c-0.2-0.1-0.4-0.4-0.4-0.9l-0.2-0.1C165,100.8,165.2,101.1,165.4,101.2"/></defs><clipPath id="SVGID_32_"><use overflow="visible" xlink:href="#SVGID_31_"/></clipPath><path d="M165.7,101.4l-0.2-0.1c-0.2-0.1-0.4-0.4-0.4-0.9l0.2,0.1C165.3,100.9,165.4,101.2,165.7,101.4" class="st39"/></g><g><polygon points="165.3 100.5 165 100.4 165 98.3 165.3 98.4" class="st26"/><polygon points="166.6 96.1 166.4 96 170.6 93.5 170.8 93.7" class="st29"/><path d="M170.8,93.7c0.7-0.4,1.3-0.1,1.3,0.8l0,2.1c0,0.8-0.6,1.9-1.3,2.3l-4.2,2.4c-0.7,0.4-1.3,0.1-1.3-0.8l0-2.1 c0-0.8,0.6-1.9,1.3-2.3L170.8,93.7z M171.3,97l0-2.1c0-0.3-0.2-0.5-0.5-0.3l-4.2,2.4c-0.3,0.2-0.5,0.6-0.5,0.9l0,2.1 c0,0.3,0.2,0.5,0.5,0.3l4.2-2.4C171.1,97.7,171.3,97.3,171.3,97" class="st32"/></g><g><defs><path id="SVGID_33_" d="M165,98.3l0.2,0.1c0-0.8,0.6-1.9,1.3-2.3l-0.2-0.1C165.6,96.4,165,97.4,165,98.3"/></defs><clipPath id="SVGID_34_"><use overflow="visible" xlink:href="#SVGID_33_"/></clipPath><path d="M165.3,98.4l-0.2-0.1c0-0.8,0.6-1.9,1.3-2.3l0.2,0.1C165.9,96.5,165.3,97.5,165.3,98.4" class="st40"/></g><g><g class="st13"><g><defs><rect id="SVGID_35_" width="18.5" height="46.3" x="151.4" y="29.7"/></defs><clipPath id="SVGID_36_"><use overflow="visible" xlink:href="#SVGID_35_"/></clipPath><polygon points="169.2 37.6 168.1 38.2 156.5 29.7 151.4 32.7 164.1 41.6 164.1 74.6 164.8 75 167.4 76 169.9 72.1 169.9 38" class="st41"/></g></g><polygon points="157.2 29.1 152.2 32 164.9 41 169.1 37.8" class="st9"/><polygon points="165.6 74.7 164.9 74.3 164.9 40.2 165.6 40.7" class="st0"/><polygon points="170.7 37.8 170.7 71.8 168.2 75.7 165.6 74.7 165.6 40.7" class="st8"/></g><g><defs><path id="SVGID_37_" d="M170.1,69.8l0.2,0.1c0.3-0.2,0.5-0.6,0.5-0.9l-0.2-0.1C170.7,69.2,170.4,69.6,170.1,69.8"/></defs><clipPath id="SVGID_38_"><use overflow="visible" xlink:href="#SVGID_37_"/></clipPath><path d="M170.4,69.9l-0.2-0.1c0.3-0.2,0.5-0.6,0.5-0.9l0.2,0.1C170.9,69.3,170.7,69.7,170.4,69.9" class="st42"/></g><g><polygon points="170.9 69 170.7 68.9 170.7 66.8 170.9 66.9" class="st26"/></g><g><defs><path id="SVGID_39_" d="M170.7,66.8l0.2,0.1c0-0.2-0.1-0.3-0.2-0.3l-0.2-0.1C170.6,66.5,170.7,66.6,170.7,66.8"/></defs><clipPath id="SVGID_40_"><use overflow="visible" xlink:href="#SVGID_39_"/></clipPath><path d="M170.9,66.9l-0.2-0.1c0-0.2-0.1-0.3-0.2-0.3l0.2,0.1C170.8,66.6,170.9,66.7,170.9,66.9" class="st43"/></g><g><defs><path id="SVGID_41_" d="M170.1,65.5l0.2,0.1c0.4-0.2,0.7-0.2,1-0.1l-0.2-0.1c-0.1-0.1-0.2-0.1-0.4-0.1 C170.6,65.3,170.3,65.4,170.1,65.5"/></defs><clipPath id="SVGID_42_"><use overflow="visible" xlink:href="#SVGID_41_"/></clipPath><path d="M170.4,65.7l-0.2-0.1c0.4-0.2,0.7-0.2,1-0.1l0.2,0.1C171.1,65.4,170.8,65.5,170.4,65.7" class="st44"/></g><g><polygon points="166.2 72.3 165.9 72.2 170.1 69.8 170.4 69.9" class="st29"/></g><g><defs><path id="SVGID_43_" d="M165.6,72.2l0.2,0.1c0.1,0.1,0.2,0,0.4,0l-0.2-0.1C165.8,72.3,165.7,72.3,165.6,72.2"/></defs><clipPath id="SVGID_44_"><use overflow="visible" xlink:href="#SVGID_43_"/></clipPath><path d="M165.8,72.4l-0.2-0.1c0.1,0.1,0.2,0,0.4,0l0.2,0.1C166.1,72.4,165.9,72.4,165.8,72.4" class="st45"/></g><g><defs><path id="SVGID_45_" d="M165,73.2l0.2,0.1c-0.2-0.1-0.4-0.4-0.4-0.9l-0.2-0.1C164.6,72.8,164.8,73.1,165,73.2"/></defs><clipPath id="SVGID_46_"><use overflow="visible" xlink:href="#SVGID_45_"/></clipPath><path d="M165.2,73.4l-0.2-0.1c-0.2-0.1-0.4-0.4-0.4-0.9l0.2,0.1C164.9,72.9,165,73.2,165.2,73.4" class="st46"/></g><g><polygon points="164.9 72.5 164.6 72.4 164.6 70.3 164.8 70.4" class="st26"/><polygon points="166.2 68.1 165.9 68 170.1 65.5 170.4 65.7" class="st29"/><path d="M170.4,65.7c0.7-0.4,1.3-0.1,1.3,0.8l0,2.1c0,0.8-0.6,1.9-1.3,2.3l-4.2,2.4c-0.7,0.4-1.3,0.1-1.3-0.8l0-2.1 c0-0.8,0.6-1.9,1.3-2.3L170.4,65.7z M170.9,69l0-2.1c0-0.3-0.2-0.5-0.5-0.3l-4.2,2.4c-0.3,0.2-0.5,0.6-0.5,0.9l0,2.1 c0,0.3,0.2,0.5,0.5,0.3l4.2-2.4C170.7,69.7,170.9,69.3,170.9,69" class="st32"/></g><g><defs><path id="SVGID_47_" d="M164.6,70.3l0.2,0.1c0-0.8,0.6-1.9,1.3-2.3l-0.2-0.1C165.2,68.4,164.6,69.4,164.6,70.3"/></defs><clipPath id="SVGID_48_"><use overflow="visible" xlink:href="#SVGID_47_"/></clipPath><path d="M164.8,70.4l-0.2-0.1c0-0.8,0.6-1.9,1.3-2.3l0.2,0.1C165.4,68.5,164.8,69.6,164.8,70.4" class="st47"/></g><g><polygon points="157.9 28.7 152.8 31.6 165.6 40.7 170.7 37.8" class="st8"/><g class="st13"><g><defs><rect id="SVGID_49_" width="18.5" height="46.3" x="128" y="43.4"/></defs><clipPath id="SVGID_50_"><use overflow="visible" xlink:href="#SVGID_49_"/></clipPath><polygon points="145.7 51.3 144.6 51.9 133 43.4 128 46.3 140.6 55.3 140.6 88.2 141.3 88.7 143.9 89.6 146.4 85.7 146.4 51.7" class="st48"/></g></g><polygon points="133.8 42.7 128.7 45.7 141.4 54.6 145.6 51.4" class="st9"/><polygon points="142.1 88.4 141.4 87.9 141.4 53.9 142.1 54.3" class="st0"/><polygon points="142.1 54.3 141.4 53.9 146.5 51 147.2 51.4" class="st24"/><polygon points="147.2 51.4 147.2 85.4 144.7 89.4 142.1 88.4 142.1 54.3" class="st8"/></g><g><defs><path id="SVGID_51_" d="M146.7,83.4l0.2,0.1c0.3-0.2,0.5-0.6,0.5-0.9l-0.2-0.1C147.2,82.8,147,83.2,146.7,83.4"/></defs><clipPath id="SVGID_52_"><use overflow="visible" xlink:href="#SVGID_51_"/></clipPath><path d="M146.9,83.5l-0.2-0.1c0.3-0.2,0.5-0.6,0.5-0.9l0.2,0.1C147.4,83,147.2,83.4,146.9,83.5" class="st49"/></g><g><polygon points="147.4 82.7 147.2 82.5 147.2 80.4 147.4 80.6" class="st26"/></g><g><defs><path id="SVGID_53_" d="M147.2,80.4l0.2,0.1c0-0.2-0.1-0.3-0.2-0.3l-0.2-0.1C147.1,80.1,147.2,80.3,147.2,80.4"/></defs><clipPath id="SVGID_54_"><use overflow="visible" xlink:href="#SVGID_53_"/></clipPath><path d="M147.4,80.6l-0.2-0.1c0-0.2-0.1-0.3-0.2-0.3l0.2,0.1C147.4,80.3,147.4,80.4,147.4,80.6" class="st50"/></g><g><defs><path id="SVGID_55_" d="M146.7,79.2l0.2,0.1c0.4-0.2,0.7-0.2,1-0.1l-0.2-0.1c-0.1-0.1-0.2-0.1-0.4-0.1 C147.1,79,146.9,79.1,146.7,79.2"/></defs><clipPath id="SVGID_56_"><use overflow="visible" xlink:href="#SVGID_55_"/></clipPath><path d="M146.9,79.3l-0.2-0.1c0.4-0.2,0.7-0.2,1-0.1l0.2,0.1C147.6,79.1,147.3,79.1,146.9,79.3" class="st51"/></g><g><polygon points="142.7 86 142.5 85.8 146.7 83.4 146.9 83.5" class="st29"/></g><g><defs><path id="SVGID_57_" d="M142.1,85.9l0.2,0.1c0.1,0.1,0.2,0,0.4,0l-0.2-0.1C142.3,85.9,142.2,85.9,142.1,85.9"/></defs><clipPath id="SVGID_58_"><use overflow="visible" xlink:href="#SVGID_57_"/></clipPath><path d="M142.3,86l-0.2-0.1c0.1,0.1,0.2,0,0.4,0l0.2,0.1C142.6,86.1,142.4,86.1,142.3,86" class="st52"/></g><g><defs><path id="SVGID_59_" d="M141.5,86.9l0.2,0.1c-0.2-0.1-0.4-0.4-0.4-0.9l-0.2-0.1C141.1,86.4,141.3,86.7,141.5,86.9"/></defs><clipPath id="SVGID_60_"><use overflow="visible" xlink:href="#SVGID_59_"/></clipPath><path d="M141.8,87l-0.2-0.1c-0.2-0.1-0.4-0.4-0.4-0.9l0.2,0.1C141.4,86.6,141.5,86.9,141.8,87" class="st53"/></g><g><polygon points="141.4 86.2 141.1 86 141.1 83.9 141.4 84.1" class="st26"/><polygon points="142.7 81.7 142.5 81.6 146.7 79.2 146.9 79.3" class="st29"/><path d="M146.9,79.3c0.7-0.4,1.3-0.1,1.3,0.8l0,2.1c0,0.8-0.6,1.9-1.3,2.3l-4.2,2.4c-0.7,0.4-1.3,0.1-1.3-0.8l0-2.1 c0-0.8,0.6-1.9,1.3-2.3L146.9,79.3z M147.4,82.7l0-2.1c0-0.3-0.2-0.5-0.5-0.3l-4.2,2.4c-0.3,0.2-0.5,0.6-0.5,0.9l0,2.1 c0,0.3,0.2,0.5,0.5,0.3l4.2-2.4C147.2,83.4,147.4,83,147.4,82.7" class="st32"/></g><g><defs><path id="SVGID_61_" d="M141.1,83.9l0.2,0.1c0-0.8,0.6-1.9,1.3-2.3l-0.2-0.1C141.7,82,141.1,83.1,141.1,83.9"/></defs><clipPath id="SVGID_62_"><use overflow="visible" xlink:href="#SVGID_61_"/></clipPath><path d="M141.4,84.1l-0.2-0.1c0-0.8,0.6-1.9,1.3-2.3l0.2,0.1C142,82.2,141.4,83.2,141.4,84.1" class="st54"/></g><polygon points="134.4 42.3 129.3 45.3 142.1 54.3 147.2 51.4" class="st8"/><path d="M117,42.8L160,17c0.9-0.5,2.1-0.4,3.5,0.3l-42.9,25.7C119.2,42.3,117.9,42.3,117,42.8" class="st16"/><path d="M117,42.8L160,17c0.9-0.5,2.1-0.4,3.5,0.3l-42.9,25.7C119.2,42.3,117.9,42.3,117,42.8z" class="st55"/><path d="M120.5,43.1l42.9-25.7c0.8,0.4,1.5,1.1,2.2,1.8l-42.9,25.7C122,44.2,121.3,43.6,120.5,43.1" class="st16"/><path d="M120.5,43.1l42.9-25.7c0.8,0.4,1.5,1.1,2.2,1.8l-42.9,25.7C122,44.2,121.3,43.6,120.5,43.1z" class="st55"/><path d="M165.6,19.2l-42.9,25.7c0.8,0.9,1.4,1.9,1.9,3l42.9-25.7C167.1,21.1,166.4,20.1,165.6,19.2" class="st16"/><path d="M165.6,19.2l-42.9,25.7c0.8,0.9,1.4,1.9,1.9,3l42.9-25.7C167.1,21.1,166.4,20.1,165.6,19.2z" class="st55"/><path d="M167.5,22.2l-42.9,25.7c0.5,1.2,0.9,2.5,0.9,3.7c0,1.6-0.6,2.6-1.4,3.2L166.9,29c0.9-0.5,1.4-1.6,1.4-3.2 C168.4,24.7,168.1,23.4,167.5,22.2" class="st16"/><path d="M167.5,22.2l-42.9,25.7c0.5,1.2,0.9,2.5,0.9,3.7c0,1.6-0.6,2.6-1.4,3.2L166.9,29c0.9-0.5,1.4-1.6,1.4-3.2 C168.4,24.7,168.1,23.4,167.5,22.2" class="st16"/><path d="M167.5,22.2l-42.9,25.7c0.5,1.2,0.9,2.5,0.9,3.7c0,1.6-0.6,2.6-1.4,3.2L166.9,29c0.9-0.5,1.4-1.6,1.4-3.2 C168.4,24.7,168.1,23.4,167.5,22.2z" class="st55"/><path d="M125.4,51.6c0,1.6-0.6,2.6-1.4,3.2L166.9,29c0.9-0.5,1.4-1.6,1.4-3.2c0-0.2,0-0.3,0-0.5l-42.9,25.7 C125.4,51.3,125.4,51.5,125.4,51.6" class="st16"/><path d="M120.5,43.1c-2.7-1.6-4.9-0.3-4.9,2.8c0,3.1,2.2,6.9,4.9,8.5c2.7,1.6,4.9,0.3,4.9-2.8 C125.5,48.5,123.3,44.7,120.5,43.1" class="st56"/><path d="M120.8,44.4c-2.3-1.3-4.2-0.3-4.2,2.4c0,2.7,1.9,5.9,4.2,7.3c2.3,1.3,4.2,0.3,4.2-2.4 C125,49,123.1,45.7,120.8,44.4" class="st57"/><path d="M122,53.3L122,53.3c-0.5,0-1.1-0.2-1.6-0.5c-1.9-1.1-3.4-3.8-3.4-6c0-1.6,0.8-2.6,2.1-2.6 c0.5,0,1.1,0.2,1.6,0.5c1.9,1.1,3.4,3.8,3.4,6C124.1,52.3,123.3,53.3,122,53.3 M119,44.8c-1,0-1.6,0.8-1.6,2.1 c0,2,1.4,4.5,3.2,5.5c0.5,0.3,0.9,0.4,1.4,0.4c1,0,1.6-0.8,1.6-2.1c0-2-1.4-4.5-3.2-5.5C119.9,44.9,119.5,44.8,119,44.8 M121.4,51.4L121.4,51.4c-0.3,0-0.6-0.1-0.9-0.3c-1.1-0.6-2-2.1-2-3.4c0-0.9,0.5-1.6,1.3-1.6c0.3,0,0.6,0.1,0.9,0.3 c1.1,0.6,2,2.1,2,3.4C122.6,50.8,122.1,51.4,121.4,51.4 M119.7,46.6c-0.5,0-0.8,0.4-0.8,1.1c0,1.1,0.8,2.4,1.7,3 c0.3,0.1,0.5,0.2,0.7,0.2c0.5,0,0.8-0.4,0.8-1.1c0-1.1-0.8-2.4-1.7-3C120.2,46.7,119.9,46.6,119.7,46.6" class="st15"/><g class="st58"><g><defs><polyline id="SVGID_63_" points="121.5 54.8 168.5 54.8 168.5 18.2"/></defs><clipPath id="SVGID_64_"><use overflow="visible" xlink:href="#SVGID_63_"/></clipPath><path d="M165.6,19.2l-42.9,25.7c0.8,0.9,1.4,1.9,1.9,3l42.9-25.7C167.1,21.1,166.4,20.1,165.6,19.2" class="st59"/><path d="M165.6,19.2l-42.9,25.7c0.8,0.9,1.4,1.9,1.9,3l42.9-25.7C167.1,21.1,166.4,20.1,165.6,19.2z" class="st60"/><path d="M167.5,22.2l-42.9,25.7c0.5,1.2,0.9,2.5,0.9,3.7c0,1.6-0.6,2.6-1.4,3.2L166.9,29c0.9-0.5,1.4-1.6,1.4-3.2 C168.4,24.7,168.1,23.4,167.5,22.2" class="st61"/><path d="M125.4,51.6c0,1.6-0.6,2.6-1.4,3.2L166.9,29c0.9-0.5,1.4-1.6,1.4-3.2c0-0.2,0-0.3,0-0.5l-42.9,25.7 C125.4,51.3,125.4,51.5,125.4,51.6" class="st61"/></g></g><g class="st12"><g><defs><polyline id="SVGID_65_" points="117 43.1 163.5 43.1 163.5 16.7"/></defs><clipPath id="SVGID_66_"><use overflow="visible" xlink:href="#SVGID_65_"/></clipPath><path d="M117,42.8L160,17c0.9-0.5,2.1-0.4,3.5,0.3l-42.9,25.7C119.2,42.3,117.9,42.3,117,42.8" class="st62"/></g></g><g class="st63"><g><defs><polyline id="SVGID_67_" points="120.5 44.9 165.6 44.9 165.6 17.4"/></defs><clipPath id="SVGID_68_"><use overflow="visible" xlink:href="#SVGID_67_"/></clipPath><path d="M120.5,43.1l42.9-25.7c0.8,0.4,1.5,1.1,2.2,1.8l-42.9,25.7C122,44.2,121.3,43.6,120.5,43.1" class="st64"/></g></g><polygon points="160.2 37.2 162.6 38.9 144.3 49.5 141.8 47.7" class="st65"/><polygon points="160.2 37.2 160.2 40.3 162.6 38.9" class="st66"/><polyline points="160.1 21.7 160.1 38.8 146.1 48.6 145.4 49 144.3 49.7 144.3 30.1" class="st66"/><polygon points="146.1 31.3 146.1 48.6 161.3 39.7 161.3 22.6" class="st67"/><path d="M150.8,43.3c-0.1,0-0.3,0-0.4-0.1c-0.4-0.2-0.6-0.8-0.3-1.2l6.9-11.9c0.2-0.4,0.8-0.6,1.2-0.3 c0.4,0.2,0.6,0.8,0.3,1.2l-6.9,11.9C151.4,43.1,151.1,43.3,150.8,43.3" class="st68"/><path d="M150.8,43.3c-0.1,0-0.3,0-0.4-0.1c-0.4-0.2-0.6-0.8-0.3-1.2l6.9-11.9c0.2-0.4,0.8-0.6,1.2-0.3 c0.4,0.2,0.6,0.8,0.3,1.2l-6.9,11.9C151.4,43.1,151.1,43.3,150.8,43.3z" class="st69"/><path d="M157.7,39.3c-0.1,0-0.3,0-0.4-0.1l-6.9-4c-0.4-0.2-0.6-0.8-0.3-1.2c0.2-0.4,0.8-0.6,1.2-0.3l6.9,4 c0.4,0.2,0.6,0.8,0.3,1.2C158.3,39.2,158,39.3,157.7,39.3" class="st68"/><path d="M157.7,39.3c-0.1,0-0.3,0-0.4-0.1l-6.9-4c-0.4-0.2-0.6-0.8-0.3-1.2c0.2-0.4,0.8-0.6,1.2-0.3l6.9,4 c0.4,0.2,0.6,0.8,0.3,1.2C158.3,39.2,158,39.3,157.7,39.3z" class="st69"/><polyline points="161.3 22.6 159.5 21.4 144.3 30.2 146.1 31.3" class="st70"/></g></g></svg>